<svg width="98" height="108" viewBox="0 0 98 108" fill="none" xmlns="http://www.w3.org/2000/svg">
<path d="M95.0699 59.218C93.1525 57.8051 90.2584 56.7683 86.1696 56.7683C78.8426 56.7683 71.7047 61.3852 71.7047 72.129C71.7047 82.4013 78.8426 87.2071 85.8867 87.2071C93.2751 87.2071 97.9603 82.6514 97.9603 75.9917C97.9603 71.7834 95.3186 68.8621 90.0044 68.8621H88.4618C85.6957 68.8621 83.5567 70.1491 83.5567 72.9768C83.5567 75.5525 85.8831 76.7782 87.6131 76.7782C88.4618 76.7782 89.0547 77.0284 89.0547 77.689C89.0547 78.5062 88.0492 79.039 86.9788 79.039C83.4251 79.039 81.0032 76.6198 81.0032 72.129C81.0032 67.1342 84.3063 65.3126 86.8526 65.3126C89.9665 65.3126 90.4693 66.8822 92.6407 66.8822C93.7453 66.8932 94.8092 66.4662 95.599 65.6949C96.3888 64.9235 96.8401 63.8708 96.8539 62.7675C96.8662 62.0758 96.7104 61.3915 96.3996 60.7733C96.0889 60.155 95.6326 59.6213 95.0699 59.218Z" fill="#F5EBDC"/>
<path d="M53.1798 74.9819V81.7677C53.1798 84.8132 51.4193 87.2323 48.1792 87.2323C44.9391 87.2323 43.1804 84.8132 43.1804 81.7677V62.3536C43.1804 59.2433 45.004 56.7629 48.3053 56.7629C50.2876 56.7629 52.0175 57.5171 53.6844 60.7516L58.0543 69.2329C58.276 69.6739 58.4634 69.8305 58.7157 69.8305C59.0617 69.8305 59.2563 69.5785 59.2563 69.0133V62.2276C59.2563 59.1821 61.0169 56.7629 64.2551 56.7629C67.4934 56.7629 69.2558 59.1821 69.2558 62.2276V81.6417C69.2558 84.752 67.4321 87.2323 64.1308 87.2323C62.2116 87.2323 60.4186 86.4782 58.7517 83.2437L54.3818 74.7623C54.1602 74.3214 53.9727 74.1648 53.7205 74.1648C53.3691 74.1576 53.1798 74.4168 53.1798 74.9819Z" fill="#F5EBDC"/>
<path d="M10.3148 81.6723V77.2175C10.3148 76.8413 10.4734 76.5587 10.8554 76.5587C11.3582 76.5587 11.4843 77.0609 11.6105 77.3111C12.3313 79.039 14.4397 82.7109 16.3895 84.8816C17.7104 86.3216 19.3466 87.2377 21.0748 87.2377C23.9995 87.2377 26.452 84.6944 26.452 81.9603C26.452 80.2648 25.7312 79.0084 24.3455 77.5001C22.5849 75.5849 20.5089 73.0704 19.7539 71.9094C19.57 71.662 19.4606 71.3673 19.4385 71.0599C19.4385 70.7143 19.6187 70.4641 20.0044 70.1185C20.8855 69.3013 23.0552 67.2602 24.2499 65.4063C25.1636 63.9933 25.5402 62.7063 25.5402 61.6372C25.5402 58.9049 23.0552 56.7683 20.3503 56.7683C18.6222 56.7683 16.9859 57.7421 15.8849 59.533C14.4072 61.9198 12.6412 64.6845 11.5132 65.7842C11.2303 66.0668 11.0735 66.128 10.8536 66.128C10.477 66.128 10.313 65.8778 10.313 65.4693V62.323C10.313 59.2433 8.48936 56.7629 5.18803 56.7629C1.85607 56.7629 0.0630493 59.2433 0.0630493 62.323V81.6723C0.0630493 84.752 1.86508 87.2323 5.18983 87.2323C8.51459 87.2323 10.3148 84.752 10.3148 81.6723Z" fill="#F5EBDC"/>
<path d="M95.3528 90.4056C97.1783 90.4056 97.9946 91.2858 97.9946 92.8247C97.9946 95.5246 95.5114 99.2955 90.6062 102.06C82.4304 106.677 68.4034 108 48.9991 108C29.5948 108 15.5678 106.677 7.38834 102.057C2.4832 99.2919 0 95.5228 0 92.8211C0 91.2821 0.818123 90.402 2.64178 90.402L95.3528 90.4056Z" fill="#F5EBDC"/>
<path d="M95.3528 30.4388H2.64178C0.818123 30.4388 0 29.4956 0 27.8001C0 17.7474 15.1263 0 48.9973 0C82.5548 0 97.9946 17.7474 97.9946 27.8001C97.9946 29.4956 97.1783 30.4388 95.3528 30.4388Z" fill="#F5EBDC"/>
<path d="M89.3466 42.9411C88.806 42.9411 88.5609 42.6262 88.5609 42.2212V40.0828C88.5609 39.6743 88.8114 39.3629 89.3466 39.3629H89.7863C91.1072 39.3629 91.5163 40.306 91.5163 41.1232C91.5163 41.908 91.1072 42.9447 89.7863 42.9447L89.3466 42.9411ZM65.1003 35.6532C63.7794 34.6794 61.9233 33.9576 59.1536 33.9576C54.2881 33.9576 49.5307 37.1615 49.5307 44.5773C49.5307 51.678 54.2791 54.9755 58.9661 54.9755C63.9019 54.9755 67.0158 51.8346 67.0158 47.2484C67.0158 44.3271 65.2552 42.3166 61.7323 42.3166H60.7285C58.8724 42.3166 57.4254 43.1967 57.4254 45.1749C57.4254 46.9334 58.9679 47.783 60.1285 47.783C60.7267 47.783 61.1034 47.963 61.1034 48.4112C61.1034 48.9763 60.4438 49.3525 59.6888 49.3525C57.3299 49.3525 55.7243 47.6876 55.7243 44.5773C55.7243 41.1232 57.9264 39.8668 59.6239 39.8668C61.6998 39.8668 62.0458 40.9342 63.4929 40.9342C63.8618 40.9328 64.2268 40.8588 64.5671 40.7165C64.9074 40.5742 65.2163 40.3663 65.4762 40.1047C65.7361 39.8431 65.9418 39.533 66.0817 39.192C66.2216 38.851 66.2928 38.4858 66.2914 38.1173V38.1065C66.3001 37.6328 66.1967 37.1638 65.9898 36.7375C65.7828 36.3112 65.478 35.9397 65.1003 35.6532ZM77.4586 46.9298H75.2962C74.7556 46.9298 74.5105 47.2448 74.5105 47.6498V48.2384C74.5105 48.6469 74.761 48.9583 75.2962 48.9583H78.1272C79.8878 48.9583 81.2717 49.9951 81.2717 51.8382C81.2717 53.7228 79.8878 54.7595 78.1272 54.7595H72.1805C69.6973 54.7595 68.5007 53.3196 68.5007 51.3667V37.5071C68.5007 35.5596 69.6973 34.1142 72.1805 34.1142H78.1272C79.8878 34.1142 81.2717 35.151 81.2717 37.0049C81.2717 38.8895 79.8878 39.9262 78.1272 39.9262H75.289C74.7484 39.9262 74.5033 40.2394 74.5033 40.6462V41.1502C74.5033 41.557 74.7538 41.8702 75.289 41.8702H77.4514C78.9615 41.8702 80.1545 42.7809 80.1545 44.3901C80.1545 45.9992 78.9687 46.91 77.4514 46.91L77.4586 46.9298ZM82.6845 51.5485C82.6845 53.433 83.7856 54.9413 85.7984 54.9413C87.8113 54.9413 88.9123 53.433 88.9123 51.5485V48.2186C88.9123 47.81 89.1016 47.621 89.4151 47.621C89.7917 47.621 89.9179 47.8406 89.9809 48.2186C90.2639 49.8205 91.0189 51.9876 91.8677 53.0874C92.9381 54.5004 93.9436 54.9413 94.951 54.9413C96.5854 54.9413 98 53.6526 98 52.0506C98 50.9833 97.5603 50.1967 96.9945 49.4749C95.9259 48.1232 95.2645 47.2448 94.8554 46.145C94.7617 45.893 94.8248 45.6734 95.1077 45.4539C96.0826 44.6997 97.2143 43.0347 97.2143 40.396C97.2143 36.4074 93.913 34.1448 89.9179 34.1448H86.3589C83.8757 34.1448 82.6791 35.5848 82.6791 37.5377L82.6845 51.5485ZM33.9071 51.5485C33.9071 53.433 35.0081 54.9413 37.021 54.9413C39.0339 54.9413 40.1349 53.433 40.1349 51.5485V48.2186C40.1349 47.81 40.3151 47.621 40.6377 47.621C41.0143 47.621 41.1404 47.8406 41.2035 48.2186C41.4864 49.8205 42.2415 51.9876 43.0902 53.0874C44.1606 54.5004 45.1662 54.9413 46.1735 54.9413C47.808 54.9413 49.2225 53.6526 49.2225 52.0506C49.2225 50.9833 48.7829 50.1967 48.217 49.4749C47.3052 48.2816 46.4871 47.2448 46.078 46.145C45.9843 45.893 46.0474 45.6734 46.3303 45.4539C47.3052 44.6997 48.4369 43.0347 48.4369 40.396C48.4369 36.4074 45.1355 34.1448 41.1404 34.1448H37.5814C35.0964 34.1448 33.9017 35.5848 33.9017 37.5377L33.9071 51.5485ZM40.5746 42.9411C40.034 42.9411 39.7889 42.6262 39.7889 42.2212V40.0828C39.7889 39.6743 40.0394 39.3629 40.5746 39.3629H41.0143C42.3352 39.3629 42.7442 40.306 42.7442 41.1232C42.7442 41.908 42.3352 42.9447 41.0143 42.9447L40.5746 42.9411ZM6.33595 46.181H6.90179C8.41189 46.181 8.85159 47.1872 8.85159 48.098C8.85159 48.9151 8.41189 50.0779 6.90179 50.0779H6.32153C5.78092 50.0779 5.53585 49.7647 5.53585 49.3579V46.8992C5.53585 46.4906 5.78633 46.1792 6.32153 46.1792L6.33595 46.181ZM6.33595 42.412C5.79534 42.412 5.55026 42.0988 5.55026 41.692V39.5483C5.55026 39.1397 5.80075 38.8283 6.33595 38.8283H6.74501C8.09654 38.8283 8.5056 39.7696 8.5056 40.5868C8.5056 41.341 8.09654 42.4084 6.74501 42.4084L6.33595 42.412ZM3.67975 54.7829H8.10915C12.2917 54.7829 14.8379 51.9876 14.8379 48.5012C14.8379 45.7058 13.1711 44.4171 12.7944 44.1039C12.6377 43.9779 12.4791 43.8519 12.4791 43.7259C12.4791 43.5693 12.5746 43.5063 12.7314 43.3173C13.5334 42.3721 13.9587 41.1649 13.9261 39.9262C13.9261 36.1554 11.3798 34.1448 7.41717 34.1448H3.67975C1.19475 34.1448 0 35.5902 0 37.5377V51.3973C0 53.3394 1.19475 54.7829 3.67975 54.7829ZM24.0896 54.9413C18.9952 54.9413 16.3228 51.894 16.3228 48.062V37.4747C16.3228 35.5902 17.4221 34.0818 19.4349 34.0818C21.4478 34.0818 22.5813 35.5902 22.5813 37.4747V47.7164C22.5813 48.4688 22.9579 49.3489 24.0896 49.3489C25.2213 49.3489 25.6628 48.4688 25.6628 47.7164V37.4747C25.6628 35.5902 26.7638 34.0818 28.7767 34.0818C30.7895 34.0818 31.896 35.5902 31.896 37.4747V48.0584C31.896 51.894 29.1929 54.9413 24.0896 54.9413Z" fill="#F5EBDC"/>
<path d="M39.5312 62.6991C39.5312 59.4016 37.6139 56.7593 34.0909 56.7593C30.5679 56.7593 28.6523 59.398 28.6523 62.6991V81.2961C28.6523 84.5936 30.5697 87.2359 34.0927 87.2359C37.6157 87.2359 39.533 84.5972 39.533 81.2961L39.5312 62.6991Z" fill="#F5EBDC"/>
</svg>
