<svg width="177" height="193" viewBox="0 0 177 193" fill="none" xmlns="http://www.w3.org/2000/svg">
<g clip-path="url(#clip0_2_6)">
<path d="M177 53.9432C177 48.01 174.867 41.5499 170.838 35.2625C166.809 28.9752 160.965 23.0537 153.908 18.0718C142.224 9.82621 121.397 0 88.4985 0C55.342 0 34.5092 9.83206 22.8897 18.0835C15.8682 23.0595 10.0496 29.022 6.06793 35.3065C2.08622 41.5909 0 48.0041 0 53.9432V159.573C0 167.818 6.32321 176.503 16.4932 182.22C30.0727 189.877 50.9348 193 88.4985 193C126.062 193 146.93 189.877 160.501 182.225C170.68 176.497 177.003 167.818 177.003 159.573L177 53.9432Z" fill="#F5EBDC"/>
<path d="M163.435 104.971C164.353 105.625 165.097 106.491 165.605 107.496C166.112 108.5 166.368 109.613 166.349 110.737C166.326 112.53 165.591 114.24 164.306 115.493C163.022 116.746 161.291 117.44 159.495 117.423C155.974 117.423 155.146 114.87 150.085 114.87C145.939 114.87 140.566 117.83 140.566 125.944C140.566 133.241 144.507 137.169 150.287 137.169C152.027 137.169 153.664 136.291 153.664 134.976C153.664 133.905 152.69 133.495 151.317 133.495C148.503 133.495 144.718 131.505 144.718 127.322C144.718 122.73 148.195 120.637 152.696 120.637H155.219C163.864 120.637 168.159 125.382 168.159 132.219C168.159 143.049 160.53 150.437 148.518 150.437C137.06 150.437 125.449 142.631 125.449 125.944C125.449 108.492 137.06 100.99 148.978 100.99C155.627 100.99 160.334 102.676 163.456 104.971" fill="#D62400"/>
<path d="M95.3029 130.589C95.3029 129.67 95.5964 129.26 96.1832 129.26C96.594 129.26 96.8992 129.515 97.2571 130.232L104.358 144.012C107.069 149.281 109.986 150.493 113.105 150.493C118.477 150.493 121.441 146.462 121.441 141.419V109.871C121.441 104.921 118.577 100.99 113.31 100.99C108.043 100.99 105.177 104.921 105.177 109.871V120.888C105.177 121.805 104.868 122.214 104.296 122.214C103.888 122.214 103.583 121.957 103.222 121.243L96.1128 107.465C93.4016 102.196 90.5906 100.984 87.3659 100.984C81.9963 100.984 79.0269 105.015 79.0269 110.058V141.609C79.0269 146.559 81.8907 150.487 87.1605 150.487C92.4304 150.487 95.2941 146.559 95.2941 141.609V130.589" fill="#D62400"/>
<path d="M25.5804 141.457V134.21C25.5804 133.598 25.8386 133.141 26.4607 133.141C27.2793 133.141 27.4818 133.958 27.6872 134.365C28.8609 137.172 32.2909 143.146 35.4628 146.658C37.6107 149 40.272 150.487 43.0917 150.487C47.8481 150.487 51.8357 146.354 51.8357 141.914C51.8357 139.159 50.662 137.116 48.4115 134.669C45.5447 131.555 42.1704 127.471 40.941 125.595C40.6415 125.195 40.4642 124.718 40.4304 124.219C40.4304 123.655 40.7238 123.248 41.3518 122.689C42.7837 121.36 46.3135 118.043 48.2589 115.034C49.7407 112.737 50.3539 110.644 50.3539 108.911C50.3539 104.47 46.3135 101.008 41.9151 101.008C39.1012 101.008 36.4399 102.591 34.65 105.498C32.2469 109.379 29.3685 113.869 27.5405 115.655C27.0798 116.114 26.8216 116.217 26.4665 116.217C25.8533 116.217 25.5863 115.807 25.5863 115.143V110.023C25.5804 105.024 22.6139 100.984 17.2443 100.984C11.8219 100.984 8.90533 105.018 8.90533 110.017V141.457C8.90533 146.459 11.8219 150.49 17.2443 150.49C22.6139 150.49 25.5804 146.459 25.5804 141.457Z" fill="#D62400"/>
<path d="M13.0983 155.645C10.1347 155.645 8.80261 157.073 8.80261 159.573C8.80261 163.963 12.8459 170.087 20.8329 174.574C34.1336 182.076 56.947 184.233 88.5073 184.233C120.068 184.233 142.884 182.091 156.185 174.574C164.166 170.087 168.215 163.96 168.215 159.573C168.215 157.073 166.886 155.645 163.916 155.645H13.0983Z" fill="#FF8233"/>
<path d="M163.899 58.2284C166.868 58.2284 168.197 56.6976 168.197 53.9432C168.197 37.613 143.081 8.78125 88.4985 8.78125C33.4088 8.78125 8.80261 37.613 8.80261 53.9432C8.80261 56.6976 10.1347 58.2284 13.0983 58.2284H163.899Z" fill="#FF8233"/>
<path d="M47.986 98.0309C56.2722 98.0309 60.6735 93.0812 60.6735 86.8553V69.6645C60.6735 66.5999 58.8836 64.1499 55.6091 64.1499C52.3345 64.1499 50.5446 66.5999 50.5446 69.6645V86.2962C50.5446 87.5226 49.8287 88.9511 47.986 88.9511C46.1433 88.9511 45.5301 87.5226 45.5301 86.2962V69.6645C45.5301 66.5999 43.6874 64.1499 40.4158 64.1499C37.1441 64.1499 35.3513 66.5999 35.3513 69.6645V86.8582C35.3513 93.0841 39.6998 98.0338 47.986 98.0338" fill="#D62400"/>
<path d="M134.794 85.02C137.247 85.02 139.196 83.5389 139.196 80.9367C139.196 78.3345 137.25 76.8563 134.794 76.8563H131.273C130.393 76.8563 129.994 76.3441 129.994 75.6855V74.8689C129.994 74.2044 130.402 73.698 131.273 73.698H135.877C138.741 73.698 140.991 72.012 140.991 68.9503C140.991 65.9413 138.741 64.267 135.877 64.267H126.2C122.16 64.267 120.214 66.6086 120.214 69.7787V92.2821C120.214 95.4462 122.16 97.7938 126.2 97.7938H135.868C138.732 97.7938 140.983 96.1107 140.983 93.049C140.983 90.037 138.732 88.3656 135.868 88.3656H131.265C130.384 88.3656 129.985 87.8563 129.985 87.1948V86.2259C129.985 85.5615 130.393 85.0551 131.265 85.0551H134.786" fill="#D62400"/>
<path d="M114.689 66.6994C115.305 67.1632 115.802 67.7655 116.14 68.4573C116.478 69.149 116.648 69.9107 116.635 70.6802C116.639 71.2798 116.525 71.8744 116.298 72.4299C116.072 72.9854 115.738 73.4909 115.315 73.9175C114.893 74.344 114.39 74.6833 113.836 74.9159C113.282 75.1485 112.688 75.2697 112.087 75.2728C109.739 75.2728 109.173 73.537 105.796 73.537C103.032 73.537 99.4519 75.586 99.4519 81.1914C99.4519 86.2435 102.063 88.9481 105.907 88.9481C107.134 88.9481 108.208 88.3364 108.208 87.4173C108.208 86.7031 107.594 86.3957 106.623 86.3957C104.731 86.3957 102.222 85.02 102.222 82.1632C102.222 78.9434 104.569 77.5179 107.594 77.5179H109.232C114.962 77.5179 117.826 80.7845 117.826 85.5293C117.826 92.9817 112.761 98.0835 104.731 98.0835C97.1016 98.0835 89.3846 92.7241 89.3846 81.1914C89.3846 69.1494 97.1075 63.945 105.036 63.945C109.54 63.945 112.559 65.1158 114.704 66.6994" fill="#D62400"/>
<path d="M73.1027 110.644C73.1027 105.287 69.9837 100.984 64.2532 100.984C58.5227 100.984 55.4036 105.272 55.4036 110.644V140.845C55.4036 146.202 58.5227 150.49 64.2532 150.49C69.9837 150.49 73.1027 146.202 73.1027 140.845V110.644Z" fill="#D62400"/>
<path d="M29.6355 80.4274C29.3831 80.2225 29.1249 80.0176 29.1249 79.8127C29.1249 79.5581 29.2804 79.4556 29.5357 79.1512C30.8377 77.6131 31.5289 75.652 31.4781 73.6395C31.4781 67.516 27.335 64.2494 20.8886 64.2494H14.7884C10.748 64.2494 8.80261 66.5911 8.80261 69.7611V92.2645C8.80261 95.4228 10.748 97.7645 14.7884 97.7645H22.0065C28.808 97.7645 32.954 93.2217 32.954 87.5578C32.9482 83.0296 30.237 80.9367 29.6355 80.4274ZM17.8077 73.0277C17.8077 72.3633 18.2155 71.8569 19.0841 71.8569H19.7501C21.9508 71.8569 22.6168 73.3878 22.6168 74.7137C22.6168 75.9373 21.9508 77.673 19.7501 77.673H19.0723C18.1921 77.673 17.7959 77.1637 17.7959 76.5022L17.8077 73.0277ZM20.0054 90.1219H19.0723C18.1921 90.1219 17.7959 89.6126 17.7959 88.9511V84.9702C17.7959 84.3029 18.2038 83.7994 19.0723 83.7994H19.9937C22.4496 83.7994 23.1655 85.4327 23.1655 86.9138C23.1802 88.2339 22.4613 90.1219 20.0054 90.1219Z" fill="#D62400"/>
<path d="M87.2222 89.153C85.7375 87.2124 84.4083 85.5293 83.7422 83.7438C83.5896 83.3369 83.6923 82.9798 84.153 82.6198C85.7375 81.3963 87.5802 78.6916 87.5802 74.4064C87.5802 67.9229 82.2106 64.2494 75.7113 64.2494H69.9309C65.8876 64.2494 63.9451 66.5911 63.9451 69.7611V92.5221C63.9451 95.5809 65.7379 98.0309 69.0125 98.0309C72.2871 98.0309 74.074 95.5809 74.074 92.5221V87.1099C74.074 86.4484 74.3821 86.1411 74.8926 86.1411C75.5059 86.1411 75.7113 86.4982 75.814 87.1099C76.2747 89.715 77.5041 93.2334 78.8832 95.013C80.6231 97.3079 82.2604 98.0221 83.8977 98.0221C86.5561 98.0221 88.8565 95.9292 88.8565 93.3387C88.8565 91.6001 88.1406 90.3239 87.2222 89.153ZM75.5059 78.5394H74.79C73.9097 78.5394 73.5106 78.0272 73.5106 77.3686V73.8942C73.5106 73.2326 73.9214 72.7233 74.79 72.7233H75.5059C77.6537 72.7233 78.3198 74.2542 78.3198 75.5801C78.3198 76.8564 77.6537 78.5394 75.5059 78.5394Z" fill="#D62400"/>
<path d="M166.56 89.153C164.82 86.9577 163.746 85.5293 163.08 83.7438C162.928 83.3369 163.03 82.9798 163.491 82.6198C165.075 81.3963 166.918 78.6916 166.918 74.4064C166.918 67.9229 161.546 64.2494 155.049 64.2494H149.272C145.228 64.2494 143.286 66.5911 143.286 69.7611V92.5221C143.286 95.5809 145.076 98.0309 148.35 98.0309C151.625 98.0309 153.412 95.5809 153.412 92.5221V87.1099C153.412 86.4484 153.723 86.1411 154.231 86.1411C154.847 86.1411 155.049 86.4982 155.152 87.1099C155.613 89.715 156.842 93.2334 158.221 95.013C159.961 97.3079 161.598 98.0221 163.236 98.0221C165.894 98.0221 168.197 95.9292 168.197 93.3387C168.197 91.6001 167.481 90.3239 166.56 89.153ZM154.847 78.5394H154.131C153.251 78.5394 152.852 78.0272 152.852 77.3686V73.8942C152.852 73.2326 153.262 72.7233 154.131 72.7233H154.847C156.995 72.7233 157.658 74.2542 157.658 75.5801C157.658 76.8564 156.995 78.5394 154.847 78.5394Z" fill="#D62400"/>
</g>
<defs>
<clipPath id="clip0_2_6">
<rect width="177" height="193" fill="white"/>
</clipPath>
</defs>
</svg>
