<svg width="27" height="26" viewBox="0 0 27 26" fill="none" xmlns="http://www.w3.org/2000/svg">
<path d="M8.24 0H19.16C23.32 0 26.7 3.38 26.7 7.54V18.46C26.7 20.4597 25.9056 22.3776 24.4916 23.7916C23.0776 25.2056 21.1597 26 19.16 26H8.24C4.08 26 0.699997 22.62 0.699997 18.46V7.54C0.699997 5.54027 1.49439 3.62244 2.90841 2.20841C4.32244 0.794391 6.24026 0 8.24 0ZM7.98 2.6C6.73878 2.6 5.54841 3.09307 4.67074 3.97074C3.79307 4.84841 3.3 6.03879 3.3 7.28V18.72C3.3 21.307 5.393 23.4 7.98 23.4H19.42C20.6612 23.4 21.8516 22.9069 22.7293 22.0293C23.6069 21.1516 24.1 19.9612 24.1 18.72V7.28C24.1 4.693 22.007 2.6 19.42 2.6H7.98ZM20.525 4.55C20.956 4.55 21.3693 4.7212 21.674 5.02595C21.9788 5.3307 22.15 5.74402 22.15 6.175C22.15 6.60598 21.9788 7.0193 21.674 7.32405C21.3693 7.62879 20.956 7.8 20.525 7.8C20.094 7.8 19.6807 7.62879 19.3759 7.32405C19.0712 7.0193 18.9 6.60598 18.9 6.175C18.9 5.74402 19.0712 5.3307 19.3759 5.02595C19.6807 4.7212 20.094 4.55 20.525 4.55ZM13.7 6.5C15.4239 6.5 17.0772 7.18482 18.2962 8.40381C19.5152 9.62279 20.2 11.2761 20.2 13C20.2 14.7239 19.5152 16.3772 18.2962 17.5962C17.0772 18.8152 15.4239 19.5 13.7 19.5C11.9761 19.5 10.3228 18.8152 9.1038 17.5962C7.88482 16.3772 7.2 14.7239 7.2 13C7.2 11.2761 7.88482 9.62279 9.1038 8.40381C10.3228 7.18482 11.9761 6.5 13.7 6.5ZM13.7 9.1C12.6657 9.1 11.6737 9.51089 10.9423 10.2423C10.2109 10.9737 9.8 11.9657 9.8 13C9.8 14.0343 10.2109 15.0263 10.9423 15.7577C11.6737 16.4891 12.6657 16.9 13.7 16.9C14.7343 16.9 15.7263 16.4891 16.4577 15.7577C17.1891 15.0263 17.6 14.0343 17.6 13C17.6 11.9657 17.1891 10.9737 16.4577 10.2423C15.7263 9.51089 14.7343 9.1 13.7 9.1Z" fill="#4B4B4B"/>
</svg>
