<svg width="27" height="26" viewBox="0 0 27 26" fill="none" xmlns="http://www.w3.org/2000/svg">
<path fill-rule="evenodd" clip-rule="evenodd" d="M5.12727 0C3.87352 0 2.67112 0.498051 1.78458 1.38459C0.898044 2.27112 0.399994 3.47352 0.399994 4.72727V21.2727C0.399994 22.5265 0.898044 23.7289 1.78458 24.6154C2.67112 25.5019 3.87352 26 5.12727 26H21.6727C22.9265 26 24.1289 25.5019 25.0154 24.6154C25.9019 23.7289 26.4 22.5265 26.4 21.2727V4.72727C26.4 3.47352 25.9019 2.27112 25.0154 1.38459C24.1289 0.498051 22.9265 0 21.6727 0H5.12727ZM4.73254 4.13636C4.60317 4.18444 4.48681 4.26207 4.39274 4.36306C4.29866 4.46405 4.22947 4.58561 4.19068 4.71806C4.15188 4.85052 4.14456 4.9902 4.16928 5.12598C4.194 5.26177 4.25009 5.3899 4.33308 5.50018L10.9678 14.3047L3.97736 21.8034L3.92536 21.8636H6.34454L12.0527 15.743L16.4396 21.567C16.5414 21.7018 16.6796 21.8047 16.8379 21.8636H22.0639C22.1931 21.8153 22.3092 21.7375 22.403 21.6364C22.4968 21.5353 22.5658 21.4137 22.6043 21.2813C22.6429 21.1488 22.65 21.0092 22.6251 20.8736C22.6002 20.7379 22.544 20.6099 22.461 20.4998L15.8263 11.6953L22.8746 4.13636H20.4519L14.7437 10.2582L10.3544 4.43418C10.2528 4.29894 10.1146 4.1956 9.95618 4.13636H4.73254ZM17.5907 20.1476L6.81845 5.85236H9.20454L19.9756 20.1465L17.5907 20.1476Z" fill="#4B4B4B"/>
</svg>
