<svg width="43" height="43" viewBox="0 0 43 43" fill="none" xmlns="http://www.w3.org/2000/svg">
<rect x="2.8667" y="8.6" width="37.2667" height="34.4" fill="#FF8233"/>
<path fill-rule="evenodd" clip-rule="evenodd" d="M4.3 0C3.15957 0 2.06585 0.453034 1.25944 1.25944C0.453034 2.06585 0 3.15957 0 4.3L0 38.7C0 39.8404 0.453034 40.9342 1.25944 41.7406C2.06585 42.547 3.15957 43 4.3 43H38.7C39.8404 43 40.9342 42.547 41.7406 41.7406C42.547 40.9342 43 39.8404 43 38.7V4.3C43 3.15957 42.547 2.06585 41.7406 1.25944C40.9342 0.453034 39.8404 0 38.7 0L4.3 0ZM18.6333 25.8C15.9723 25.8 13.4203 26.8571 11.5387 28.7387C9.65708 30.6203 8.6 33.1723 8.6 35.8333V38.7C8.6 39.0801 8.75101 39.4447 9.01981 39.7135C9.28862 39.9823 9.65319 40.1333 10.0333 40.1333H32.9667C33.3468 40.1333 33.7114 39.9823 33.9802 39.7135C34.249 39.4447 34.4 39.0801 34.4 38.7V35.8333C34.4 33.1723 33.3429 30.6203 31.4613 28.7387C29.5797 26.8571 27.0277 25.8 24.3667 25.8H18.6333ZM14.3333 15.7667C14.3333 13.8659 15.0884 12.0431 16.4324 10.6991C17.7764 9.35506 19.5993 8.6 21.5 8.6C23.4007 8.6 25.2236 9.35506 26.5676 10.6991C27.9116 12.0431 28.6667 13.8659 28.6667 15.7667C28.6667 17.6674 27.9116 19.4903 26.5676 20.8343C25.2236 22.1783 23.4007 22.9333 21.5 22.9333C19.5993 22.9333 17.7764 22.1783 16.4324 20.8343C15.0884 19.4903 14.3333 17.6674 14.3333 15.7667Z" fill="#502314"/>
</svg>
